<?xml version="1.0" encoding="UTF-8" standalone="no"?><!DOCTYPE svg PUBLIC "-//W3C//DTD SVG 1.1//EN" "http://www.w3.org/Graphics/SVG/1.1/DTD/svg11.dtd"><!-- Generated by graphviz version 2.40.1 (20161225.0304)
 --><!-- Title: %0 Pages: 1 --><svg xmlns="http://www.w3.org/2000/svg" xmlns:xlink="http://www.w3.org/1999/xlink" width="820pt" height="476pt" viewBox="0.00 0.00 819.55 476.00">
<g id="graph0" class="graph" transform="scale(1 1) rotate(0) translate(4 472)">
<title>%0</title>
<polygon fill="#ffffff" stroke="transparent" points="-4,4 -4,-472 815.5479,-472 815.5479,4 -4,4"/>
<!-- [root] aws_eip.my&#45;eip (expand) -->
<g id="node1" class="node">
<title>[root] aws_eip.my-eip (expand)</title>
<polygon fill="none" stroke="#000000" points="408.2354,-324 303.1806,-324 303.1806,-288 408.2354,-288 408.2354,-324"/>
<text text-anchor="middle" x="355.708" y="-301.8" font-family="Times,serif" font-size="14.00" fill="#000000">aws_eip.my-eip</text>
</g>
<!-- [root] aws_instance.my&#45;ec2&#45;vm (expand) -->
<g id="node2" class="node">
<title>[root] aws_instance.my-ec2-vm (expand)</title>
<polygon fill="none" stroke="#000000" points="670.8753,-252 512.5407,-252 512.5407,-216 670.8753,-216 670.8753,-252"/>
<text text-anchor="middle" x="591.708" y="-229.8" font-family="Times,serif" font-size="14.00" fill="#000000">aws_instance.my-ec2-vm</text>
</g>
<!-- [root] aws_eip.my&#45;eip (expand)&#45;&gt;[root] aws_instance.my&#45;ec2&#45;vm (expand) -->
<g id="edge1" class="edge">
<title>[root] aws_eip.my-eip (expand)-&gt;[root] aws_instance.my-ec2-vm (expand)</title>
<path fill="none" stroke="#000000" d="M408.3773,-289.9314C442.1723,-279.6211 486.4071,-266.1257 522.9584,-254.9744"/>
<polygon fill="#000000" stroke="#000000" points="524.0169,-258.3109 532.5603,-252.0451 521.9742,-251.6155 524.0169,-258.3109"/>
</g>
<!-- [root] aws_internet_gateway.vpc&#45;dev&#45;igw (expand) -->
<g id="node3" class="node">
<title>[root] aws_internet_gateway.vpc-dev-igw (expand)</title>
<polygon fill="none" stroke="#000000" points="215.6244,-252 -.2084,-252 -.2084,-216 215.6244,-216 215.6244,-252"/>
<text text-anchor="middle" x="107.708" y="-229.8" font-family="Times,serif" font-size="14.00" fill="#000000">aws_internet_gateway.vpc-dev-igw</text>
</g>
<!-- [root] aws_eip.my&#45;eip (expand)&#45;&gt;[root] aws_internet_gateway.vpc&#45;dev&#45;igw (expand) -->
<g id="edge2" class="edge">
<title>[root] aws_eip.my-eip (expand)-&gt;[root] aws_internet_gateway.vpc-dev-igw (expand)</title>
<path fill="none" stroke="#000000" d="M303.1412,-290.4674C300.2891,-289.6312 297.4638,-288.8045 294.708,-288 257.0655,-277.0113 215.1247,-264.8889 180.5173,-254.9187"/>
<polygon fill="#000000" stroke="#000000" points="181.0724,-251.4364 170.4943,-252.0322 179.1352,-258.163 181.0724,-251.4364"/>
</g>
<!-- [root] aws_security_group.dev&#45;vpc&#45;sg (expand) -->
<g id="node7" class="node">
<title>[root] aws_security_group.dev-vpc-sg (expand)</title>
<polygon fill="none" stroke="#000000" points="570.1455,-180 375.2705,-180 375.2705,-144 570.1455,-144 570.1455,-180"/>
<text text-anchor="middle" x="472.708" y="-157.8" font-family="Times,serif" font-size="14.00" fill="#000000">aws_security_group.dev-vpc-sg</text>
</g>
<!-- [root] aws_instance.my&#45;ec2&#45;vm (expand)&#45;&gt;[root] aws_security_group.dev&#45;vpc&#45;sg (expand) -->
<g id="edge3" class="edge">
<title>[root] aws_instance.my-ec2-vm (expand)-&gt;[root] aws_security_group.dev-vpc-sg (expand)</title>
<path fill="none" stroke="#000000" d="M561.6793,-215.8314C546.4584,-206.6221 527.7952,-195.3301 511.4997,-185.4706"/>
<polygon fill="#000000" stroke="#000000" points="513.0948,-182.345 502.7271,-180.1628 509.4711,-188.3341 513.0948,-182.345"/>
</g>
<!-- [root] aws_subnet.vpc&#45;dev&#45;public&#45;subnet&#45;1 (expand) -->
<g id="node8" class="node">
<title>[root] aws_subnet.vpc-dev-public-subnet-1 (expand)</title>
<polygon fill="none" stroke="#000000" points="810.1412,-180 587.2748,-180 587.2748,-144 810.1412,-144 810.1412,-180"/>
<text text-anchor="middle" x="698.708" y="-157.8" font-family="Times,serif" font-size="14.00" fill="#000000">aws_subnet.vpc-dev-public-subnet-1</text>
</g>
<!-- [root] aws_instance.my&#45;ec2&#45;vm (expand)&#45;&gt;[root] aws_subnet.vpc&#45;dev&#45;public&#45;subnet&#45;1 (expand) -->
<g id="edge4" class="edge">
<title>[root] aws_instance.my-ec2-vm (expand)-&gt;[root] aws_subnet.vpc-dev-public-subnet-1 (expand)</title>
<path fill="none" stroke="#000000" d="M618.7086,-215.8314C632.1411,-206.7927 648.5553,-195.7476 663.0119,-186.0198"/>
<polygon fill="#000000" stroke="#000000" points="665.3734,-188.6494 671.716,-180.1628 661.4655,-182.8418 665.3734,-188.6494"/>
</g>
<!-- [root] aws_vpc.vpc&#45;dev (expand) -->
<g id="node9" class="node">
<title>[root] aws_vpc.vpc-dev (expand)</title>
<polygon fill="none" stroke="#000000" points="466.279,-108 353.137,-108 353.137,-72 466.279,-72 466.279,-108"/>
<text text-anchor="middle" x="409.708" y="-85.8" font-family="Times,serif" font-size="14.00" fill="#000000">aws_vpc.vpc-dev</text>
</g>
<!-- [root] aws_internet_gateway.vpc&#45;dev&#45;igw (expand)&#45;&gt;[root] aws_vpc.vpc&#45;dev (expand) -->
<g id="edge5" class="edge">
<title>[root] aws_internet_gateway.vpc-dev-igw (expand)-&gt;[root] aws_vpc.vpc-dev (expand)</title>
<path fill="none" stroke="#000000" d="M145.6507,-215.9081C200.688,-189.6652 302.6124,-141.0655 362.4537,-112.5318"/>
<polygon fill="#000000" stroke="#000000" points="364.163,-115.5944 371.683,-108.1311 361.1501,-109.2759 364.163,-115.5944"/>
</g>
<!-- [root] aws_route.vpc&#45;dev&#45;public&#45;route (expand) -->
<g id="node4" class="node">
<title>[root] aws_route.vpc-dev-public-route (expand)</title>
<polygon fill="none" stroke="#000000" points="285.4123,-324 90.0037,-324 90.0037,-288 285.4123,-288 285.4123,-324"/>
<text text-anchor="middle" x="187.708" y="-301.8" font-family="Times,serif" font-size="14.00" fill="#000000">aws_route.vpc-dev-public-route</text>
</g>
<!-- [root] aws_route.vpc&#45;dev&#45;public&#45;route (expand)&#45;&gt;[root] aws_internet_gateway.vpc&#45;dev&#45;igw (expand) -->
<g id="edge6" class="edge">
<title>[root] aws_route.vpc-dev-public-route (expand)-&gt;[root] aws_internet_gateway.vpc-dev-igw (expand)</title>
<path fill="none" stroke="#000000" d="M167.5206,-287.8314C157.8566,-279.1337 146.1284,-268.5783 135.6264,-259.1265"/>
<polygon fill="#000000" stroke="#000000" points="137.6633,-256.251 127.8889,-252.1628 132.9805,-261.454 137.6633,-256.251"/>
</g>
<!-- [root] aws_route_table.vpc&#45;dev&#45;public&#45;route&#45;table (expand) -->
<g id="node5" class="node">
<title>[root] aws_route_table.vpc-dev-public-route-table (expand)</title>
<polygon fill="none" stroke="#000000" points="494.4938,-252 232.9222,-252 232.9222,-216 494.4938,-216 494.4938,-252"/>
<text text-anchor="middle" x="363.708" y="-229.8" font-family="Times,serif" font-size="14.00" fill="#000000">aws_route_table.vpc-dev-public-route-table</text>
</g>
<!-- [root] aws_route.vpc&#45;dev&#45;public&#45;route (expand)&#45;&gt;[root] aws_route_table.vpc&#45;dev&#45;public&#45;route&#45;table (expand) -->
<g id="edge7" class="edge">
<title>[root] aws_route.vpc-dev-public-route (expand)-&gt;[root] aws_route_table.vpc-dev-public-route-table (expand)</title>
<path fill="none" stroke="#000000" d="M232.1202,-287.8314C255.8684,-278.1162 285.2826,-266.0831 310.2744,-255.8592"/>
<polygon fill="#000000" stroke="#000000" points="311.6849,-259.0638 319.6151,-252.038 309.0344,-252.585 311.6849,-259.0638"/>
</g>
<!-- [root] aws_route_table.vpc&#45;dev&#45;public&#45;route&#45;table (expand)&#45;&gt;[root] aws_vpc.vpc&#45;dev (expand) -->
<g id="edge8" class="edge">
<title>[root] aws_route_table.vpc-dev-public-route-table (expand)-&gt;[root] aws_vpc.vpc-dev (expand)</title>
<path fill="none" stroke="#000000" d="M361.0468,-215.7746C359.0649,-197.1269 358.0087,-167.6191 366.708,-144 370.4746,-133.7735 376.9912,-123.9984 383.8287,-115.6445"/>
<polygon fill="#000000" stroke="#000000" points="386.4707,-117.9401 390.4033,-108.1022 381.194,-113.3405 386.4707,-117.9401"/>
</g>
<!-- [root] aws_route_table_association.vpc&#45;dev&#45;public&#45;route&#45;table&#45;associate (expand) -->
<g id="node6" class="node">
<title>[root] aws_route_table_association.vpc-dev-public-route-table-associate (expand)</title>
<polygon fill="none" stroke="#000000" points="811.3879,-324 426.0281,-324 426.0281,-288 811.3879,-288 811.3879,-324"/>
<text text-anchor="middle" x="618.708" y="-301.8" font-family="Times,serif" font-size="14.00" fill="#000000">aws_route_table_association.vpc-dev-public-route-table-associate</text>
</g>
<!-- [root] aws_route_table_association.vpc&#45;dev&#45;public&#45;route&#45;table&#45;associate (expand)&#45;&gt;[root] aws_route_table.vpc&#45;dev&#45;public&#45;route&#45;table (expand) -->
<g id="edge9" class="edge">
<title>[root] aws_route_table_association.vpc-dev-public-route-table-associate (expand)-&gt;[root] aws_route_table.vpc-dev-public-route-table (expand)</title>
<path fill="none" stroke="#000000" d="M554.6899,-287.9243C519.0721,-277.8675 474.5805,-265.3052 437.5031,-254.8363"/>
<polygon fill="#000000" stroke="#000000" points="438.3273,-251.4322 427.7525,-252.0831 436.4251,-258.1688 438.3273,-251.4322"/>
</g>
<!-- [root] aws_route_table_association.vpc&#45;dev&#45;public&#45;route&#45;table&#45;associate (expand)&#45;&gt;[root] aws_subnet.vpc&#45;dev&#45;public&#45;subnet&#45;1 (expand) -->
<g id="edge10" class="edge">
<title>[root] aws_route_table_association.vpc-dev-public-route-table-associate (expand)-&gt;[root] aws_subnet.vpc-dev-public-subnet-1 (expand)</title>
<path fill="none" stroke="#000000" d="M646.0794,-287.9364C658.1562,-278.5964 671.4546,-266.1796 679.708,-252 690.6541,-233.1942 695.3306,-208.9106 697.3106,-190.3081"/>
<polygon fill="#000000" stroke="#000000" points="700.819,-190.36 698.1917,-180.0961 693.8449,-189.7581 700.819,-190.36"/>
</g>
<!-- [root] aws_security_group.dev&#45;vpc&#45;sg (expand)&#45;&gt;[root] aws_vpc.vpc&#45;dev (expand) -->
<g id="edge11" class="edge">
<title>[root] aws_security_group.dev-vpc-sg (expand)-&gt;[root] aws_vpc.vpc-dev (expand)</title>
<path fill="none" stroke="#000000" d="M456.8104,-143.8314C449.4802,-135.454 440.642,-125.3531 432.6111,-116.1749"/>
<polygon fill="#000000" stroke="#000000" points="435.0387,-113.6343 425.8196,-108.4133 429.7707,-118.2438 435.0387,-113.6343"/>
</g>
<!-- [root] aws_subnet.vpc&#45;dev&#45;public&#45;subnet&#45;1 (expand)&#45;&gt;[root] aws_vpc.vpc&#45;dev (expand) -->
<g id="edge12" class="edge">
<title>[root] aws_subnet.vpc-dev-public-subnet-1 (expand)-&gt;[root] aws_vpc.vpc-dev (expand)</title>
<path fill="none" stroke="#000000" d="M626.1541,-143.9243C580.1423,-132.4611 521.0639,-117.7427 476.2569,-106.5797"/>
<polygon fill="#000000" stroke="#000000" points="476.8968,-103.1322 466.3473,-104.1108 475.2046,-109.9245 476.8968,-103.1322"/>
</g>
<!-- [root] provider[&quot;registry.terraform.io/hashicorp/aws&quot;] -->
<g id="node10" class="node">
<title>[root] provider["registry.terraform.io/hashicorp/aws"]</title>
<polygon fill="none" stroke="#000000" points="409.708,-36 134.7175,-18 409.708,0 684.6985,-18 409.708,-36"/>
<text text-anchor="middle" x="409.708" y="-13.8" font-family="Times,serif" font-size="14.00" fill="#000000">provider["registry.terraform.io/hashicorp/aws"]</text>
</g>
<!-- [root] aws_vpc.vpc&#45;dev (expand)&#45;&gt;[root] provider[&quot;registry.terraform.io/hashicorp/aws&quot;] -->
<g id="edge13" class="edge">
<title>[root] aws_vpc.vpc-dev (expand)-&gt;[root] provider["registry.terraform.io/hashicorp/aws"]</title>
<path fill="none" stroke="#000000" d="M409.708,-71.8314C409.708,-64.131 409.708,-54.9743 409.708,-46.4166"/>
<polygon fill="#000000" stroke="#000000" points="413.2081,-46.4132 409.708,-36.4133 406.2081,-46.4133 413.2081,-46.4132"/>
</g>
<!-- [root] provider[&quot;registry.terraform.io/hashicorp/aws&quot;] (close) -->
<g id="node11" class="node">
<title>[root] provider["registry.terraform.io/hashicorp/aws"] (close)</title>
<ellipse fill="none" stroke="#000000" cx="355.708" cy="-378" rx="247.2168" ry="18"/>
<text text-anchor="middle" x="355.708" y="-373.8" font-family="Times,serif" font-size="14.00" fill="#000000">[root] provider["registry.terraform.io/hashicorp/aws"] (close)</text>
</g>
<!-- [root] provider[&quot;registry.terraform.io/hashicorp/aws&quot;] (close)&#45;&gt;[root] aws_eip.my&#45;eip (expand) -->
<g id="edge14" class="edge">
<title>[root] provider["registry.terraform.io/hashicorp/aws"] (close)-&gt;[root] aws_eip.my-eip (expand)</title>
<path fill="none" stroke="#000000" d="M355.708,-359.8314C355.708,-352.131 355.708,-342.9743 355.708,-334.4166"/>
<polygon fill="#000000" stroke="#000000" points="359.2081,-334.4132 355.708,-324.4133 352.2081,-334.4133 359.2081,-334.4132"/>
</g>
<!-- [root] provider[&quot;registry.terraform.io/hashicorp/aws&quot;] (close)&#45;&gt;[root] aws_route.vpc&#45;dev&#45;public&#45;route (expand) -->
<g id="edge15" class="edge">
<title>[root] provider["registry.terraform.io/hashicorp/aws"] (close)-&gt;[root] aws_route.vpc-dev-public-route (expand)</title>
<path fill="none" stroke="#000000" d="M314.1799,-360.2022C291.5339,-350.4968 263.2989,-338.3961 239.2556,-328.0918"/>
<polygon fill="#000000" stroke="#000000" points="240.4955,-324.8154 229.9253,-324.0931 237.738,-331.2494 240.4955,-324.8154"/>
</g>
<!-- [root] provider[&quot;registry.terraform.io/hashicorp/aws&quot;] (close)&#45;&gt;[root] aws_route_table_association.vpc&#45;dev&#45;public&#45;route&#45;table&#45;associate (expand) -->
<g id="edge16" class="edge">
<title>[root] provider["registry.terraform.io/hashicorp/aws"] (close)-&gt;[root] aws_route_table_association.vpc-dev-public-route-table-associate (expand)</title>
<path fill="none" stroke="#000000" d="M419.373,-360.5708C456.6518,-350.3652 503.9465,-337.4176 543.1117,-326.6956"/>
<polygon fill="#000000" stroke="#000000" points="544.1619,-330.0369 552.8828,-324.0206 542.3135,-323.2854 544.1619,-330.0369"/>
</g>
<!-- [root] root -->
<g id="node12" class="node">
<title>[root] root</title>
<ellipse fill="none" stroke="#000000" cx="355.708" cy="-450" rx="50.9823" ry="18"/>
<text text-anchor="middle" x="355.708" y="-445.8" font-family="Times,serif" font-size="14.00" fill="#000000">[root] root</text>
</g>
<!-- [root] root&#45;&gt;[root] provider[&quot;registry.terraform.io/hashicorp/aws&quot;] (close) -->
<g id="edge17" class="edge">
<title>[root] root-&gt;[root] provider["registry.terraform.io/hashicorp/aws"] (close)</title>
<path fill="none" stroke="#000000" d="M355.708,-431.8314C355.708,-424.131 355.708,-414.9743 355.708,-406.4166"/>
<polygon fill="#000000" stroke="#000000" points="359.2081,-406.4132 355.708,-396.4133 352.2081,-406.4133 359.2081,-406.4132"/>
</g>
</g>
</svg>